<svg xmlns="http://www.w3.org/2000/svg" viewBox="0 0 192 192"><defs><style>.cls-1{fill:#e0e0e0;}.cls-2{fill:#1b5e20;}.cls-3{fill:#388e3c;}.cls-4{fill:#fafafa;}.cls-5{fill:#212121;}</style></defs><g id="back"><rect class="cls-1" x="20" y="20" width="152" height="152" rx="12"/><rect class="cls-2" x="20" width="172" height="192"/><path class="cls-3" d="M0,31.8V160.2L31.8,192H73.19l90.34-90.34a8,8,0,0,0,0-11.32L73.19,0H31.8Z"/><path class="cls-4" d="M0,192H38.25l90.34-90.34a8,8,0,0,0,0-11.32L38.25,0H0Z"/></g><g id="front"><path class="cls-5" d="M64,73.12,92,88.37v20.38H86.88V91.11L64,103.63,36,88.37ZM46.25,99,64,108.75,81.75,99v10.25L64,118.88l-17.75-9.65Z"/></g></svg>